<?xml version="1.0" standalone="no"?><!DOCTYPE svg PUBLIC "-//W3C//DTD SVG 1.1//EN"
        "http://www.w3.org/Graphics/SVG/1.1/DTD/svg11.dtd">
<svg t="1532786926713" class="icon" style="" viewBox="0 0 1025 1024" version="1.1" xmlns="http://www.w3.org/2000/svg"
     p-id="563" xmlns:xlink="http://www.w3.org/1999/xlink" width="200.1953125" height="200" fill="white">
    <defs>
        <style type="text/css"></style>
    </defs>
    <path d="M546.944 998.784V417.92c41.344 6.528 85.12 14.208 121.216 14.208 118.4 0 209.792-34.816 271.744-103.424 103.936-115.2 84.224-282.368 83.328-289.408l-2.816-22.272-22.528-3.84C996.48 13.056 963.84 7.68 915.456 7.68c-56.192 0-139.776 7.552-218.88 43.264-60.672 27.392-114.048 91.648-158.976 190.848-7.168 16-13.568 31.488-19.2 46.08-9.216-29.824-20.992-57.472-35.2-82.688-26.752-47.104-61.952-85.12-104.832-113.152C273.664 23.68 172.16 9.216 105.6 9.216c-48.768 0-80.128 7.808-81.408 8.064L3.2 22.656 1.28 43.776c-0.256 2.432-5.376 59.008 7.424 130.816 7.552 42.496 19.968 81.792 36.608 116.608 21.376 44.416 49.92 81.792 84.992 110.976 50.304 41.984 103.68 72.96 158.464 91.904 43.264 14.976 77.184 26.368 121.344 26.368 27.776 0 50.432 3.2 68.352 0v478.336h68.48z m-126.208-542.592c-86.656 0-171.008-33.664-250.496-99.968-28.16-23.424-51.328-53.76-68.864-89.984-14.464-29.696-25.088-63.488-31.872-100.48-6.912-38.4-8.064-72.448-7.936-93.568 11.136-1.408 26.112-2.56 43.904-2.56 58.112 0 146.56 12.544 238.592 72.576 34.432 22.4 62.848 53.248 84.736 91.392 17.92 31.36 31.488 67.84 40.192 108.544 9.728 44.8 11.392 84.864 11.392 108.416-19.584 3.84-39.552 5.632-59.648 5.632m472.576-167.168c-49.664 54.912-125.568 82.688-225.28 82.688-33.92 0-70.784-3.2-110.208-9.6 7.424-24.064 19.584-59.52 36.608-96.768 38.016-83.712 82.304-138.88 128-159.616 68.992-31.232 143.104-37.76 193.152-37.76 19.2 0 35.584 0.896 47.744 2.048 1.024 45.44-4.992 147.2-70.016 219.008"
          p-id="564"></path>
</svg>