<?xml version="1.0" standalone="no"?><!DOCTYPE svg PUBLIC "-//W3C//DTD SVG 1.1//EN"
        "http://www.w3.org/Graphics/SVG/1.1/DTD/svg11.dtd">
<svg t="1532786952923" class="icon" style="" viewBox="0 0 1025 1024" version="1.1" xmlns="http://www.w3.org/2000/svg"
     p-id="672" xmlns:xlink="http://www.w3.org/1999/xlink" width="200.1953125" height="200"  fill="white">
    <defs>
        <style type="text/css"></style>
    </defs>
    <path d="M1020.032 449.088c-16.64-135.68-85.376-256.704-193.472-340.736C718.464 24.256 583.936-12.864 447.744 3.968 308.928 20.992 185.408 92.416 101.76 202.048l-10.56-86.08c-1.408-11.712-12.096-20.032-23.872-18.56-11.84 1.408-20.096 12.096-18.688 23.808l18.496 150.272c-0.128 1.408-0.512 2.688-0.32 4.16 1.408 11.712 12.096 20.032 23.872 18.56l153.344-18.88a21.775 21.775 0 0 0 2.944-0.576c10.176-2.688 17.024-12.544 15.744-23.232-1.472-11.712-12.16-20.032-23.872-18.56l-111.36 17.664C203.008 140.8 320.32 68.672 453.632 52.288c123.2-15.168 244.928 18.432 342.72 94.464 97.792 76.096 160 185.6 175.04 308.288 31.168 253.44-150.464 484.928-404.864 516.352-254.4 31.296-486.72-149.44-517.824-402.88-1.408-11.52-17.984-19.264-29.76-17.792C7.168 552.192-1.152 562.816 0.256 574.528c34.368 280.128 291.136 479.808 572.288 445.248a532.302 532.302 0 0 0 70.656-13.696c243.264-65.088 408.32-300.992 376.832-556.992zM554.624 283.52c0-14.848-11.456-26.88-25.536-26.88-14.144 0-25.536 12.032-25.536 26.88v280.768L314.24 630.784c-12.8 6.272-18.304 22.272-12.288 35.712 5.952 13.44 21.184 19.2 33.984 12.928l203.52-71.552c9.728-4.8 15.168-15.168 14.592-25.792 0.128-1.088 0.576-1.984 0.576-3.072V283.52z m0 0"
          p-id="673"></path>
</svg>