<svg class="icon" viewBox="0 0 1024 1024" xmlns="http://www.w3.org/2000/svg" width="200" height="200" fill="#fff"><defs><style/></defs><path d="M517.584 20.224c-226.928 0-413.52 176.672-413.52 391.536 0 210.064 378.224 568.16 393.344 587.28 5.04 4.752 10.096 4.752 20.176 4.752 10.112 0 15.12 0 20.176-4.752 15.12-14.336 393.376-377.216 393.376-587.28-.016-214.864-186.624-391.536-413.552-391.536zm0 909.744c-72.784-73.504-349.44-353.808-349.44-514.624 0-183.808 155.312-330.864 349.44-330.864S867.04 231.52 867.04 415.344c-.016 160.816-276.64 441.12-349.456 514.624z"/><path d="M682.8 460.496c-15.52-9.456-37.024-4.192-46.48 11.296a143.584 143.584 0 0 0-3.2 5.856 118.96 118.96 0 0 1-4.416 8.048c-17.008 28.048-44.336 47.92-76.976 55.888a128.064 128.064 0 0 1-30.64 3.744c-56.608 0-105.696-38.912-119.36-94.624-8-32.64-3.072-66.064 13.92-94.096 16.992-28.048 44.336-47.888 76.976-55.888a128.736 128.736 0 0 1 30.624-3.744c51.2 0 96.16 31.04 114.704 79.52l.048.16c5.264 15.408 18.32 25.36 33.264 25.36a34.4 34.4 0 0 0 33.552-42.128l-.624-2.4a25.648 25.648 0 0 0-1.312-3.472c-28.256-75.04-101.456-125.472-182.176-125.472a186.42 186.42 0 0 0-44.464 5.376c-101.504 24.912-166.224 131.696-141.312 233.216 20.864 85.008 100.24 146.688 188.736 146.688 15.008 0 29.968-1.808 44.48-5.376 53.376-13.088 98.864-49.44 124.832-99.68.176-.336 4.336-9.12 4.8-10.4a34 34 0 0 0-14.976-37.872z"/></svg>